# xmcd
#
# Track frame offsets:
#	150
#	36590
#	48277
#	80642
#	89332
#	103577
#	138135
#	176330
#	192687
#	210870
#	223612
#
# Disc length: 3555 seconds
#
# Revision: 1
# Processed by: cddbd v1.5.1PL0 Copyright (c) Steve Scherf et al.
# Submitted via: CDex 1.50Beta5
#
DISCID=970de10b
DTITLE=オルフェウス室内管弦楽団 - 気分沈静クラシック
DYEAR=1987
DGENRE=
TTITLE0=オルフェウス室内管弦楽団/悲しみ*交響曲第44番ホ短調
TTITLE1=コンタルスキー(アルフォンス)/子守歌*ドリー
TTITLE2=ペイエ(ジェルベイズ・ド)/クラリネット五重奏曲イ長調第2楽章
TTITLE3=アルゲリッチ(マルタ)/前奏曲第4番ホ短調
TTITLE4=イングリッシュ・コンサート/トリオ・ソナタ第3楽章(HWV386b)
TTITLE5=ウィーン・フィルハーモニー管弦楽団/ファゴット協奏曲第2楽章
TTITLE6=ヘルシンキ放送(交)/トゥオネラの白鳥*レンミンケイネン
TTITLE7=セルシェル(イェラン)/カバティーナ
TTITLE8=ケンプ(ウィルヘルム)/メヌエット
TTITLE9=フランス国立放送(管)/人形の子守歌*子供の遊び
TTITLE10=ボストン交響楽団/牧神の午後への前奏曲
EXTD=
EXTT0=
EXTT1=
EXTT2=
EXTT3=
EXTT4=
EXTT5=
EXTT6=
EXTT7=
EXTT8=
EXTT9=
EXTT10=
PLAYORDER=
